<svg xmlns="http://www.w3.org/2000/svg" viewBox="0 0 21.43 35.01"><defs><style>.cls-1{fill:#231f20;}</style></defs><g id="Layer_2" data-name="Layer 2"><g id="Layer_1-2" data-name="Layer 1"><path class="cls-1" d="M10.72,35A10.73,10.73,0,0,0,21.43,24.29c0-5.8-2.5-10-6-15.87-1.25-2.11-2.67-4.5-4.13-7.25L10.72,0l-.63,1.17C8.63,3.92,7.21,6.31,6,8.42,2.5,14.27,0,18.49,0,24.29A10.73,10.73,0,0,0,10.72,35ZM10,15.65v5.78L7.46,18.88l-1,1L10,23.42v3.47L6.33,23.2l-1,1L10,28.88v1.34A6.29,6.29,0,0,1,4.43,24c0-3.72,1.59-6.41,4-10.46.7-1.19,1.48-2.5,2.29-4,.81,1.47,1.58,2.78,2.28,4,2.41,4.05,4,6.74,4,10.46a6.29,6.29,0,0,1-5.58,6.24V28.88L16.1,24.2l-1-1-3.68,3.69V23.42L15,19.87l-1-1-2.55,2.55V15.65ZM7.17,9.14C8.26,7.32,9.46,5.28,10.72,3,12,5.28,13.17,7.32,14.26,9.14,17.6,14.79,20,18.87,20,24.29a9.32,9.32,0,0,1-8.6,9.28V31.64a7.7,7.7,0,0,0,7-7.66c0-4.11-1.76-7.08-4.19-11.18-.88-1.47-1.87-3.14-2.88-5.06l-.62-1.17-.63,1.17c-1,1.92-2,3.59-2.87,5.06C4.78,16.9,3,19.87,3,24a7.7,7.7,0,0,0,7,7.66v1.93a9.32,9.32,0,0,1-8.6-9.28C1.41,18.87,3.83,14.79,7.17,9.14Z"/></g></g></svg>