<svg xmlns="http://www.w3.org/2000/svg" viewBox="0 0 80.5 54.42"><defs><style>.cls-1{fill:#fff;}.cls-2{fill:#92c83e;}</style></defs><g id="Layer_2" data-name="Layer 2"><g id="Layer_1-2" data-name="Layer 1"><polygon class="cls-1" points="2.85 49.04 9 49.04 9 46.48 2.85 46.48 2.85 43.84 9.83 43.84 9.83 41.29 0 41.29 0 54.33 9.93 54.33 9.93 51.77 2.85 51.77 2.85 49.04"/><path class="cls-2" d="M39.56,35A10.73,10.73,0,0,0,50.28,24.29c0-5.8-2.5-10-6-15.87-1.26-2.11-2.67-4.5-4.14-7.25L39.56,0l-.62,1.17c-1.46,2.75-2.88,5.14-4.13,7.25-3.46,5.85-6,10.07-6,15.87A10.72,10.72,0,0,0,39.56,35Zm-.7-19.36v5.78l-2.55-2.55-1,1,3.55,3.55v3.47L35.17,23.2l-1,1,4.68,4.68v1.34A6.28,6.28,0,0,1,33.28,24c0-3.72,1.59-6.41,4-10.46.71-1.19,1.48-2.5,2.29-4,.81,1.47,1.59,2.78,2.29,4,2.41,4.05,4,6.74,4,10.46a6.29,6.29,0,0,1-5.58,6.24V28.88L45,24.2l-1-1-3.68,3.69V23.42l3.54-3.55-1-1-2.55,2.55V15.65ZM36,9.14C37.1,7.32,38.31,5.28,39.56,3,40.82,5.28,42,7.32,43.1,9.14c3.35,5.65,5.77,9.73,5.77,15.15a9.32,9.32,0,0,1-8.6,9.28V31.64a7.7,7.7,0,0,0,7-7.66c0-4.11-1.75-7.08-4.19-11.18-.87-1.47-1.86-3.14-2.88-5.06l-.62-1.17-.62,1.17c-1,1.92-2,3.59-2.88,5.06-2.43,4.1-4.19,7.07-4.19,11.18a7.7,7.7,0,0,0,7,7.66v1.93a9.32,9.32,0,0,1-8.6-9.28C30.26,18.87,32.67,14.79,36,9.14Z"/><polygon class="cls-1" points="20.54 50.47 17.14 41.29 13.97 41.29 19.24 54.42 21.77 54.42 27.04 41.29 23.95 41.29 20.54 50.47"/><path class="cls-1" d="M34.27,41.19,28.68,54.33h2.93L32.8,51.4h5.51l1.19,2.93h3L36.92,41.19Zm-.45,7.68,1.74-4.23,1.73,4.23Z"/><rect class="cls-1" x="60.27" y="41.29" width="2.87" height="13.04"/><polygon class="cls-1" points="74.95 46.82 80.26 41.29 76.79 41.29 71.5 46.99 71.5 41.29 68.64 41.29 68.64 54.33 71.5 54.33 71.5 50.34 73.01 48.77 77.05 54.33 80.5 54.33 74.95 46.82"/><polygon class="cls-1" points="49.62 41.29 46.75 41.29 46.75 54.33 56.12 54.33 56.12 51.72 49.62 51.72 49.62 41.29"/></g></g></svg>